<mxfile host="65bd71144e" scale="2" border="0">
    <diagram id="nwu4WDFMMCXEYSIrM4b9" name="第 1 页">
        <mxGraphModel dx="671" dy="316" grid="1" gridSize="10" guides="1" tooltips="1" connect="1" arrows="1" fold="1" page="1" pageScale="1" pageWidth="827" pageHeight="1169" math="0" shadow="0">
            <root>
                <mxCell id="0"/>
                <mxCell id="1" parent="0"/>
                <mxCell id="2" value="" style="rounded=0;whiteSpace=wrap;html=1;" vertex="1" parent="1">
                    <mxGeometry x="240" y="40" width="280" height="340" as="geometry"/>
                </mxCell>
                <mxCell id="3" value="" style="rounded=0;whiteSpace=wrap;html=1;" vertex="1" parent="1">
                    <mxGeometry x="260" y="80" width="240" height="280" as="geometry"/>
                </mxCell>
                <mxCell id="4" value="AxTask&lt;br&gt;定义位置：lib.rs" style="text;html=1;strokeColor=none;fillColor=none;align=left;verticalAlign=middle;whiteSpace=wrap;rounded=0;" vertex="1" parent="1">
                    <mxGeometry x="250" y="40" width="120" height="40" as="geometry"/>
                </mxCell>
                <mxCell id="5" value="xxTask（类型随调度器改变）&lt;br&gt;定义位置：scheduler库&lt;br&gt;内容：与调度器相关的任务属性" style="text;html=1;strokeColor=none;fillColor=none;align=left;verticalAlign=middle;whiteSpace=wrap;rounded=0;" vertex="1" parent="1">
                    <mxGeometry x="270" y="80" width="180" height="80" as="geometry"/>
                </mxCell>
                <mxCell id="6" value="" style="rounded=0;whiteSpace=wrap;html=1;" vertex="1" parent="1">
                    <mxGeometry x="280" y="160" width="200" height="180" as="geometry"/>
                </mxCell>
                <mxCell id="7" value="ScheduleTask&lt;br&gt;定义位置：task.rs&lt;br&gt;内容：任务状态、所属Executor等" style="text;html=1;strokeColor=none;fillColor=none;align=left;verticalAlign=middle;whiteSpace=wrap;rounded=0;" vertex="1" parent="1">
                    <mxGeometry x="290" y="160" width="190" height="80" as="geometry"/>
                </mxCell>
                <mxCell id="8" value="" style="rounded=0;whiteSpace=wrap;html=1;" vertex="1" parent="1">
                    <mxGeometry x="300" y="240" width="160" height="80" as="geometry"/>
                </mxCell>
                <mxCell id="9" value="TaskInner&lt;br&gt;定义位置：async_taskctx库&lt;br&gt;内容：基本信息、上下文、内核栈等" style="text;html=1;strokeColor=none;fillColor=none;align=left;verticalAlign=middle;whiteSpace=wrap;rounded=0;" vertex="1" parent="1">
                    <mxGeometry x="310" y="240" width="150" height="80" as="geometry"/>
                </mxCell>
            </root>
        </mxGraphModel>
    </diagram>
</mxfile>